  0
SECTION
  2
HEADER
  9
$ANGBASE
  50
0.0
  9
$ANGDIR
  70
1
  9
$MEASUREMENT
  70
0
  0
ENDSEC
  0
SECTION
  2
TABLES
  0
TABLE
  2
LTYPE
  70
4
  0
LTYPE
  5
40F
  2
CONTINUOUS
  70
0
  3
Solid line
  72
65
  73
0
  40
0.0
  0
LTYPE
  5
410
  2
DASHDOT
 70
0
  3
Dash Dot ____ _ ____ _
 72
65
 73
4
 40
2.0
 49
1.25
 49
-0.25
 49
0.25
 49
-0.25
  0
LTYPE
  5
411
  2
DASHED
 70
0
  3
Dashed __ __ __ __ __
 72
65
 73
2
 40
0.75
 49
0.5
 49
-0.25
  0
LTYPE
  5
43B
  2
DOTTED
 70
0
  3
Dotted .  .  .  .
 72
65
 73
2
 40
0.2
 49
0.0
 49
-0.2
  0
ENDTAB
  0
TABLE
  2
STYLE
  70
4
  0
STYLE
  2
KICAD
  70
0
  40
0
  41
1
  42
1
  50
0
  71
0
  3
isocp.shx
  0
STYLE
  2
KICADB
  70
0
  40
0
  41
1
  42
1
  50
0
  71
0
  3
isocp.shx
  0
STYLE
  2
KICADI
  70
0
  40
0
  41
1
  42
1
  50
15
  71
0
  3
isocp.shx
  0
STYLE
  2
KICADBI
  70
0
  40
0
  41
1
  42
1
  50
15
  71
0
  3
isocp.shx
  0
ENDTAB
  0
TABLE
  2
LAYER
  70
1
  0
LAYER
  2
BLACK
  70
0
  62
7
  6
CONTINUOUS
  0
ENDTAB
  0
ENDSEC
  0
SECTION
  2
ENTITIES
0
LINE
8
BLACK
6
CONTINUOUS
10
23.3
20
-11.4799
11
23.3014
21
-11.4805
0
LINE
8
BLACK
6
CONTINUOUS
10
23.3014
20
-11.4805
11
23.302
21
-11.4819
0
LINE
8
BLACK
6
CONTINUOUS
10
23.302
20
-11.4819
11
23.302
21
-15.7251
0
LINE
8
BLACK
6
CONTINUOUS
10
23.302
20
-15.7251
11
23.3014
21
-15.7265
0
LINE
8
BLACK
6
CONTINUOUS
10
23.3014
20
-15.7265
11
23.3
21
-15.7271
0
LINE
8
BLACK
6
CONTINUOUS
10
23.3
20
-15.7271
11
4.425
21
-15.7271
0
LINE
8
BLACK
6
CONTINUOUS
10
4.425
20
-15.7271
11
4.42361
21
-15.7265
0
LINE
8
BLACK
6
CONTINUOUS
10
4.42361
20
-15.7265
11
4.42303
21
-15.7251
0
LINE
8
BLACK
6
CONTINUOUS
10
4.42303
20
-15.7251
11
4.42303
21
-15.7251
0
LINE
8
BLACK
6
CONTINUOUS
10
4.42303
20
-15.7251
11
4.42303
21
-11.4819
0
LINE
8
BLACK
6
CONTINUOUS
10
4.42303
20
-11.4819
11
4.42361
21
-11.4805
0
LINE
8
BLACK
6
CONTINUOUS
10
4.42361
20
-11.4805
11
4.425
21
-11.4799
0
LINE
8
BLACK
6
CONTINUOUS
10
4.425
20
-11.4799
11
23.3
21
-11.4799
0
LINE
8
BLACK
6
CONTINUOUS
10
4.42697
20
-11.4839
11
4.42697
21
-15.7231
0
LINE
8
BLACK
6
CONTINUOUS
10
4.42697
20
-15.7231
11
23.298
21
-15.7231
0
LINE
8
BLACK
6
CONTINUOUS
10
23.298
20
-15.7231
11
23.298
21
-11.4839
0
LINE
8
BLACK
6
CONTINUOUS
10
23.298
20
-11.4839
11
4.42697
21
-11.4839
0
LINE
8
BLACK
6
CONTINUOUS
10
23.3
20
-10.49
11
23.3014
21
-10.4905
0
LINE
8
BLACK
6
CONTINUOUS
10
23.3014
20
-10.4905
11
23.302
21
-10.4919
0
LINE
8
BLACK
6
CONTINUOUS
10
23.302
20
-10.4919
11
23.302
21
-11.3581
0
LINE
8
BLACK
6
CONTINUOUS
10
23.302
20
-11.3581
11
23.3014
21
-11.3595
0
LINE
8
BLACK
6
CONTINUOUS
10
23.3014
20
-11.3595
11
23.3
21
-11.36
0
LINE
8
BLACK
6
CONTINUOUS
10
23.3
20
-11.36
11
4.4252
21
-11.36
0
LINE
8
BLACK
6
CONTINUOUS
10
4.4252
20
-11.36
11
4.4238
21
-11.3595
0
LINE
8
BLACK
6
CONTINUOUS
10
4.4238
20
-11.3595
11
4.42323
21
-11.3581
0
LINE
8
BLACK
6
CONTINUOUS
10
4.42323
20
-11.3581
11
4.42323
21
-10.4919
0
LINE
8
BLACK
6
CONTINUOUS
10
4.42323
20
-10.4919
11
4.4238
21
-10.4905
0
LINE
8
BLACK
6
CONTINUOUS
10
4.4238
20
-10.4905
11
4.4252
21
-10.49
0
LINE
8
BLACK
6
CONTINUOUS
10
4.4252
20
-10.49
11
23.3
21
-10.49
0
LINE
8
BLACK
6
CONTINUOUS
10
4.42717
20
-10.4939
11
4.42717
21
-11.3561
0
LINE
8
BLACK
6
CONTINUOUS
10
4.42717
20
-11.3561
11
23.298
21
-11.3561
0
LINE
8
BLACK
6
CONTINUOUS
10
23.298
20
-11.3561
11
23.298
21
-10.4939
0
LINE
8
BLACK
6
CONTINUOUS
10
23.298
20
-10.4939
11
4.42717
21
-10.4939
  0
ENDSEC
  0
EOF
